HIERARCHY
ROOT Hips
{
	OFFSET -0.001795 -0.223333 0.028219
	CHANNELS 6 Xposition Yposition Zposition Zrotation Yrotation Xrotation 
	JOINT LeftUpLeg
	{
		OFFSET 0.069520 -0.091406 -0.006815
		CHANNELS 3 Zrotation Yrotation Xrotation
		JOINT LeftLeg
		{
			OFFSET 0.034277 -0.375199 -0.004496
			CHANNELS 3 Zrotation Yrotation Xrotation
			JOINT LeftFoot
			{
				OFFSET -0.013596 -0.397961 -0.043693
				CHANNELS 3 Zrotation Yrotation Xrotation
				JOINT LeftToe
				{
					OFFSET 0.026358 -0.055791 0.119288
					CHANNELS 3 Zrotation Yrotation Xrotation
					End Site
					{
						OFFSET 0.000000 0.000000 0.000000
					}
				}
			}
		}
	}
	JOINT RightUpLeg
	{
		OFFSET -0.067670 -0.090522 -0.004320
		CHANNELS 3 Zrotation Yrotation Xrotation
		JOINT RightLeg
		{
			OFFSET -0.038290 -0.382569 -0.008850
			CHANNELS 3 Zrotation Yrotation Xrotation
			JOINT RightFoot
			{
				OFFSET 0.015774 -0.398415 -0.042312
				CHANNELS 3 Zrotation Yrotation Xrotation
				JOINT RightToe
				{
					OFFSET -0.025372 -0.048144 0.123348
					CHANNELS 3 Zrotation Yrotation Xrotation
					End Site
					{
						OFFSET 0.000000 0.000000 0.000000
					}
				}
			}
		}
	}
	JOINT Spine
	{
		OFFSET -0.002533 0.108963 -0.026696
		CHANNELS 3 Zrotation Yrotation Xrotation
		JOINT Spine1
		{
			OFFSET 0.005487 0.135180 0.001092
			CHANNELS 3 Zrotation Yrotation Xrotation
			JOINT Spine2
			{
				OFFSET 0.001457 0.052922 0.025425
				CHANNELS 3 Zrotation Yrotation Xrotation
				JOINT Neck
				{
					OFFSET -0.002778 0.213870 -0.042857
					CHANNELS 3 Zrotation Yrotation Xrotation
					JOINT Head
					{
						OFFSET 0.005152 0.064970 0.051349
						CHANNELS 3 Zrotation Yrotation Xrotation
						End Site
						{
							OFFSET 0.000000 0.000000 0.000000
						}
					}
				}
				JOINT LeftShoulder
				{
					OFFSET 0.078845 0.121749 -0.034090
					CHANNELS 3 Zrotation Yrotation Xrotation
					JOINT LeftArm
					{
						OFFSET 0.090977 0.030469 -0.008868
						CHANNELS 3 Zrotation Yrotation Xrotation
						JOINT LeftForeArm
						{
							OFFSET 0.259612 -0.012772 -0.027456
							CHANNELS 3 Zrotation Yrotation Xrotation
							JOINT LeftHand
							{
								OFFSET 0.249234 0.008986 -0.001171
								CHANNELS 3 Zrotation Yrotation Xrotation
								End Site
								{
									OFFSET 0.000000 0.000000 0.000000
								}
							}
						}
					}
				}
				JOINT RightShoulder
				{
					OFFSET -0.081759 0.118833 -0.038615
					CHANNELS 3 Zrotation Yrotation Xrotation
					JOINT RightArm
					{
						OFFSET -0.096012 0.032551 -0.009143
						CHANNELS 3 Zrotation Yrotation Xrotation
						JOINT RightForeArm
						{
							OFFSET -0.253742 -0.013329 -0.021401
							CHANNELS 3 Zrotation Yrotation Xrotation
							JOINT RightHand
							{
								OFFSET -0.255298 0.007772 -0.005559
								CHANNELS 3 Zrotation Yrotation Xrotation
								End Site
								{
									OFFSET 0.000000 0.000000 0.000000
								}
							}
						}
					}
				}
			}
		}
	}
}
MOTION
Frames: 18
Frame Time: 0.050000
0.005957 0.944230 -0.001061 -1.281887 3.935493 5.126869 -4.383730 -0.098314 -1.834835 1.277987 0.033487 -3.597848 -0.997286 0.340961 4.661343 0.000000 0.000000 0.000000 0.444630 0.266414 -2.605303 -0.917418 0.080155 -0.469545 -0.534733 -2.403355 2.552113 0.000000 0.000000 0.000000 1.087789 0.168775 -4.159317 -1.231241 0.675509 -3.835317 -0.384939 -0.752463 8.926452 1.199288 0.682096 -17.892813 0.000000 0.000000 0.000000 -14.060809 -1.046644 -0.956342 -60.911930 -2.980476 -6.214655 -12.194700 -23.676567 3.451306 0.000000 0.000000 0.000000 13.150065 3.623539 0.908390 62.916122 6.788776 -2.837109 10.673136 22.883039 2.852534 0.000000 0.000000 0.000000
0.006596 0.944510 -0.001762 -1.393117 4.178972 5.303399 -4.509242 -0.133579 -2.149372 1.286723 0.038329 -3.711416 -1.351006 -0.105330 5.100618 0.000000 0.000000 0.000000 0.500249 0.318969 -3.102980 -0.843615 0.103499 0.207934 -0.703368 -2.699237 2.277834 0.000000 0.000000 0.000000 0.999337 0.159585 -4.005327 -1.212950 0.668828 -3.810995 -0.277618 -0.556260 8.822686 1.234065 0.724290 -18.212046 0.000000 0.000000 0.000000 -13.872644 -1.257842 -0.332284 -60.963833 -2.891790 -6.263265 -11.926664 -23.001366 3.274008 0.000000 0.000000 0.000000 13.169840 3.428866 0.869515 63.009735 6.911193 -2.745313 10.269822 23.413145 2.866634 0.000000 0.000000 0.000000
0.007070 0.944977 -0.002534 -1.445416 4.390076 5.490367 -4.537778 -0.174012 -2.493540 1.380385 0.025627 -3.555472 -1.459615 -0.453794 4.793871 0.000000 0.000000 0.000000 0.565977 0.387101 -3.747757 -0.690750 0.125851 1.117907 -0.797213 -2.760569 1.843267 0.000000 0.000000 0.000000 0.878555 0.149073 -3.811681 -1.164241 0.654462 -4.022323 -0.222935 -0.658269 9.007005 1.196958 0.757731 -18.349417 0.000000 0.000000 0.000000 -13.951661 -1.467455 -0.027987 -60.783810 -2.963631 -6.222970 -11.393738 -22.457857 3.087609 0.000000 0.000000 0.000000 13.041635 3.458577 0.896050 63.246449 6.953545 -2.742376 9.916807 24.380968 2.939926 0.000000 0.000000 0.000000
0.007205 0.945321 -0.002998 -1.581070 4.452270 5.738647 -4.475263 -0.220102 -2.873992 1.599941 0.015920 -3.666719 -1.761518 -0.788825 5.262944 0.000000 0.000000 0.000000 0.670191 0.491203 -4.733958 -0.284502 0.134871 2.634974 -1.218383 -3.454109 0.879381 0.000000 0.000000 0.000000 0.600082 0.138357 -3.612900 -0.978285 0.577138 -4.095153 -0.066769 -0.828612 8.853916 1.052077 0.855976 -18.759842 0.000000 0.000000 0.000000 -13.920722 -1.475571 -1.337122 -60.913170 -2.588809 -6.410908 -11.167706 -21.914991 2.972401 0.000000 0.000000 0.000000 13.119728 3.445195 0.854217 63.483814 7.216763 -2.591531 9.318531 24.957184 2.887938 0.000000 0.000000 0.000000
0.007259 0.945996 -0.003052 -1.776448 4.282200 5.791290 -4.389606 -0.246068 -3.070412 1.621614 0.013258 -3.648189 -1.957217 -1.173767 5.266443 0.000000 0.000000 0.000000 0.652031 0.576433 -5.556461 0.241500 0.130847 4.695581 -1.463736 -3.695076 -0.188480 0.000000 0.000000 0.000000 0.412320 0.116546 -3.076888 -0.957626 0.571675 -4.290044 0.005352 -1.129969 8.703179 0.909421 0.884376 -18.653711 0.000000 0.000000 0.000000 -14.080256 -1.082048 -1.815599 -60.510529 -2.549167 -6.357996 -11.491263 -21.766651 3.029732 0.000000 0.000000 0.000000 13.159794 3.690274 0.894311 63.670788 7.053329 -2.688387 9.123288 25.797085 2.936161 0.000000 0.000000 0.000000
0.007263 0.946470 -0.003137 -1.835621 3.869445 5.541152 -4.049647 -0.245150 -3.011503 1.410790 0.018958 -3.475910 -1.774565 -0.817702 5.338636 0.000000 0.000000 0.000000 0.414981 0.705737 -6.879263 1.357563 0.035349 8.260422 -1.675890 -3.818899 -1.337315 0.000000 0.000000 0.000000 0.075622 0.093372 -2.431397 -0.898212 0.548390 -4.519395 0.124716 -1.314103 8.689093 0.992367 0.837663 -19.328062 0.000000 0.000000 0.000000 -13.992534 -0.728021 -1.718978 -60.583961 -2.095695 -6.590282 -11.499995 -22.056192 3.094038 0.000000 0.000000 0.000000 13.313897 3.527346 0.731239 64.141266 6.999547 -2.755172 8.534928 26.362547 2.862416 0.000000 0.000000 0.000000
0.007487 0.946665 -0.003398 -1.995090 3.194135 5.491824 -3.657526 -0.266277 -3.131845 0.996165 0.039309 -3.290873 -1.552730 -0.579109 5.063311 0.000000 0.000000 0.000000 0.195651 0.919897 -9.117016 2.547869 -0.131942 13.540800 -2.017923 -4.247969 -2.556614 0.000000 0.000000 0.000000 -0.085833 0.080906 -2.048884 -0.992066 0.581163 -4.546897 0.165254 -1.530803 8.331258 0.899992 0.862166 -19.859608 0.000000 0.000000 0.000000 -13.590289 -0.284228 -1.342686 -60.539455 -1.936967 -6.612909 -11.613319 -22.137703 3.152714 0.000000 0.000000 0.000000 13.573494 3.710302 0.684956 64.048981 7.461258 -2.490112 8.473768 26.173574 2.783817 0.000000 0.000000 0.000000
0.007744 0.946628 -0.003918 -2.137714 2.702351 5.202940 -3.293973 -0.245445 -2.901353 0.559355 0.063621 -3.108980 -1.521364 -0.744915 4.671488 0.000000 0.000000 0.000000 -0.054401 1.116685 -11.287280 3.048177 -0.222283 19.159203 -3.064255 -7.028631 -2.615153 0.000000 0.000000 0.000000 0.109036 0.062372 -1.616914 -1.308628 0.711149 -4.578717 0.313267 -2.019967 8.621905 0.992377 0.739573 -20.267790 0.000000 0.000000 0.000000 -14.008885 -0.096742 -1.064414 -60.166794 -2.137256 -6.482346 -11.435183 -22.371193 3.197776 0.000000 0.000000 0.000000 13.829830 4.093440 0.711379 64.242226 7.434938 -2.584939 7.647194 27.086494 2.667619 0.000000 0.000000 0.000000
0.008099 0.946638 -0.004281 -2.215126 2.353381 5.022417 -2.970326 -0.233033 -2.756264 0.334476 0.083331 -3.194621 -1.437683 -0.590129 4.701962 0.000000 0.000000 0.000000 -0.163372 1.246772 -12.721075 3.487613 -0.338163 22.554123 -3.519952 -8.198353 -2.719494 0.000000 0.000000 0.000000 0.081435 0.044043 -1.145232 -1.111704 0.627609 -4.764334 0.091877 -2.106271 8.551817 0.814987 0.821866 -20.394524 0.000000 0.000000 0.000000 -13.839199 -0.572900 -1.962762 -60.181519 -2.538547 -6.271942 -11.360121 -22.686380 3.240313 0.000000 0.000000 0.000000 14.095007 3.806718 0.507246 64.112366 7.335871 -2.641311 7.966771 26.939898 2.706442 0.000000 0.000000 0.000000
0.008442 0.946831 -0.003993 -2.309437 2.240073 4.643386 -2.990588 -0.202629 -2.464725 0.539080 0.049783 -2.719569 -1.475000 -0.947198 4.134640 0.000000 0.000000 0.000000 -0.004858 1.286644 -12.991777 3.785666 -0.426637 22.962732 -3.160204 -7.065625 -3.201471 0.000000 0.000000 0.000000 0.260324 0.031608 -0.906407 -1.138165 0.633718 -4.541584 0.110751 -2.590743 8.162693 0.978185 0.643552 -20.055693 0.000000 0.000000 0.000000 -14.278889 -0.728880 -1.911565 -59.327248 -2.826089 -6.001683 -11.611477 -22.618299 3.299230 0.000000 0.000000 0.000000 14.499518 4.220852 0.560768 63.612389 7.298065 -2.629291 7.790605 26.377989 2.561343 0.000000 0.000000 0.000000
0.008916 0.946626 -0.002984 -2.270123 2.128087 4.188366 -3.295553 -0.125755 -1.792266 1.063642 0.018925 -2.984052 -1.728032 -1.115887 4.797133 0.000000 0.000000 0.000000 -0.061544 1.132855 -11.428833 3.809247 -0.409901 19.647614 -3.355298 -7.677376 -2.928369 0.000000 0.000000 0.000000 0.337467 0.032196 -0.933676 -0.897740 0.536824 -4.787977 -0.160969 -2.829207 8.582560 1.107552 0.513451 -19.754553 0.000000 0.000000 0.000000 -14.478807 -0.855649 -1.297594 -58.953930 -3.032832 -5.909075 -11.755701 -22.752693 3.365914 0.000000 0.000000 0.000000 14.598699 4.053706 0.431493 63.830177 6.697555 -3.027852 7.655926 26.091446 2.493953 0.000000 0.000000 0.000000
0.009568 0.946370 -0.001667 -2.070654 2.184787 4.149687 -3.794657 -0.114466 -1.737928 1.560640 -0.029782 -2.768176 -1.676268 -1.333351 4.152364 0.000000 0.000000 0.000000 -0.312823 0.943716 -9.618829 3.404453 -0.297855 14.977655 -3.069291 -7.050492 -2.496823 0.000000 0.000000 0.000000 0.208985 0.047120 -1.245799 -0.843934 0.510687 -4.606377 -0.088442 -3.153450 8.361761 1.443548 0.263556 -19.445833 0.000000 0.000000 0.000000 -14.587834 -0.589429 -0.620348 -58.762039 -3.650510 -5.564183 -12.097776 -22.694910 3.440534 0.000000 0.000000 0.000000 14.236119 3.917962 0.322142 64.140945 6.261508 -3.278742 7.840243 24.934334 2.386385 0.000000 0.000000 0.000000
0.010100 0.946085 -0.000412 -1.810973 2.492111 4.082168 -4.037074 -0.070264 -1.410927 1.661083 -0.034616 -2.817722 -1.673552 -1.212357 4.344477 0.000000 0.000000 0.000000 -0.174133 0.778730 -7.833679 2.675302 -0.164412 10.790583 -2.846867 -6.886725 -1.203579 0.000000 0.000000 0.000000 0.185928 0.072056 -1.851501 -0.689794 0.449680 -4.611566 -0.043253 -3.300251 8.624615 1.411426 0.271256 -19.354256 0.000000 0.000000 0.000000 -14.629767 -0.531812 -1.831931 -58.962578 -3.843479 -5.512961 -12.355549 -22.731224 3.504032 0.000000 0.000000 0.000000 13.843747 3.478398 0.148297 64.288200 5.737660 -3.612192 7.886565 24.188778 2.319132 0.000000 0.000000 0.000000
0.010596 0.946212 0.000665 -1.554966 2.544444 4.156008 -4.381202 -0.052490 -1.312791 1.703886 -0.033296 -2.911033 -1.452322 -0.838028 4.222576 0.000000 0.000000 0.000000 -0.252705 0.655167 -6.581476 2.065344 -0.088214 7.598882 -2.446968 -6.147225 -0.301599 0.000000 0.000000 0.000000 0.406284 0.095333 -2.434122 -0.652334 0.434733 -4.629501 -0.016485 -3.412082 8.746303 1.395115 0.263857 -19.310574 0.000000 0.000000 0.000000 -14.828595 -0.759943 -1.791716 -59.185539 -4.187192 -5.379546 -12.495642 -22.454615 3.494494 0.000000 0.000000 0.000000 13.587805 3.507107 0.167739 64.295311 5.201397 -3.931264 8.292450 23.509829 2.319462 0.000000 0.000000 0.000000
0.010823 0.946489 0.001834 -1.537507 2.484092 4.055259 -4.391046 -0.028658 -1.114948 1.834063 -0.034141 -3.106163 -1.358599 -0.445160 4.657055 0.000000 0.000000 0.000000 -0.090196 0.606060 -6.033154 1.479271 -0.020341 5.911300 -2.133461 -5.622634 0.510454 0.000000 0.000000 0.000000 0.716298 0.110159 -2.763461 -0.537356 0.377164 -4.332040 0.021940 -3.376275 8.408733 1.422485 0.255704 -19.358753 0.000000 0.000000 0.000000 -14.951087 -0.939164 -0.447185 -59.592197 -4.444071 -5.251978 -12.176500 -22.047186 3.358967 0.000000 0.000000 0.000000 13.579809 3.472490 0.140821 64.005241 4.868471 -4.061913 8.254642 22.562366 2.201590 0.000000 0.000000 0.000000
0.010860 0.946499 0.003319 -1.478267 2.362629 3.958061 -4.456209 0.008465 -0.820105 1.797541 -0.017075 -3.407331 -1.287690 -0.238429 4.817788 0.000000 0.000000 0.000000 -0.121874 0.522467 -5.189734 1.168518 -0.015865 4.095326 -1.609744 -4.638950 1.415465 0.000000 0.000000 0.000000 1.040314 0.128713 -3.127131 -0.581437 0.392450 -4.247363 0.164953 -3.167922 8.274684 1.379912 0.312303 -19.585253 0.000000 0.000000 0.000000 -14.677367 -1.366028 -1.386711 -60.055176 -4.818805 -5.085324 -11.821462 -21.187714 3.143667 0.000000 0.000000 0.000000 13.177288 3.506731 0.207370 63.900524 4.436021 -4.279858 8.579471 21.723188 2.168133 0.000000 0.000000 0.000000
0.010587 0.946381 0.005123 -1.436910 2.554953 3.843777 -4.443720 0.054872 -0.454764 1.867156 -0.014053 -3.563754 -1.167635 0.021003 4.851172 0.000000 0.000000 0.000000 -0.040565 0.463543 -4.579887 0.905899 -0.001697 3.290134 -1.332930 -4.249299 2.220388 0.000000 0.000000 0.000000 1.365347 0.149280 -3.496887 -0.457998 0.334923 -4.016993 0.133069 -3.240505 8.181540 1.310634 0.334544 -19.254547 0.000000 0.000000 0.000000 -14.832620 -1.717796 -1.252650 -60.350300 -4.967975 -5.028948 -11.575995 -20.449747 2.976150 0.000000 0.000000 0.000000 13.411003 3.657916 0.266822 63.486881 4.222413 -4.355746 8.479550 21.459753 2.122471 0.000000 0.000000 0.000000
0.010172 0.945998 0.007037 -1.461469 2.636069 4.021655 -4.256736 0.072468 -0.306607 1.695273 0.011187 -3.824747 -0.834884 0.622967 4.762935 0.000000 0.000000 0.000000 -0.087630 0.424655 -4.189476 1.055713 -0.050353 2.300664 -1.034836 -3.721112 2.740583 0.000000 0.000000 0.000000 1.597188 0.178010 -4.033554 -0.392089 0.304824 -3.941356 0.262517 -3.016928 7.887873 1.320124 0.355128 -19.161634 0.000000 0.000000 0.000000 -14.692784 -2.316037 -0.478778 -60.968632 -5.342349 -4.853657 -10.806869 -19.004280 2.607673 0.000000 0.000000 0.000000 13.082594 3.699130 0.350230 63.612949 4.046572 -4.422756 8.471149 20.882505 2.063277 0.000000 0.000000 0.000000
